<svg id="visual" viewBox="0 0 960 540" width="960" height="540" xmlns="http://www.w3.org/2000/svg" xmlns:xlink="http://www.w3.org/1999/xlink" version="1.1"><rect x="0" y="0" width="960" height="540" fill="#000"></rect><path d="M0 379L120 393L240 411L360 393L480 360L600 403L720 420L840 377L960 411L960 541L840 541L720 541L600 541L480 541L360 541L240 541L120 541L0 541Z" fill="#45ddad"></path><path d="M0 406L120 431L240 412L360 432L480 444L600 419L720 399L840 417L960 403L960 541L840 541L720 541L600 541L480 541L360 541L240 541L120 541L0 541Z" fill="#00b9c8"></path><path d="M0 469L120 470L240 457L360 447L480 429L600 430L720 436L840 441L960 468L960 541L840 541L720 541L600 541L480 541L360 541L240 541L120 541L0 541Z" fill="#008fc0"></path><path d="M0 478L120 463L240 478L360 470L480 468L600 482L720 489L840 471L960 471L960 541L840 541L720 541L600 541L480 541L360 541L240 541L120 541L0 541Z" fill="#0064a8"></path><path d="M0 485L120 511L240 510L360 488L480 490L600 501L720 490L840 488L960 494L960 541L840 541L720 541L600 541L480 541L360 541L240 541L120 541L0 541Z" fill="#003787"></path></svg>