<svg id="visual" viewBox="0 0 960 540" width="960" height="540" xmlns="http://www.w3.org/2000/svg" xmlns:xlink="http://www.w3.org/1999/xlink" version="1.1"><rect x="0" y="0" width="960" height="540" fill="#000"></rect><path d="M0 406L10.7 407C21.3 408 42.7 410 64 416.8C85.3 423.7 106.7 435.3 128 439.5C149.3 443.7 170.7 440.3 192 439.7C213.3 439 234.7 441 256 443.7C277.3 446.3 298.7 449.7 320 446.7C341.3 443.7 362.7 434.3 384 433.7C405.3 433 426.7 441 448 442.2C469.3 443.3 490.7 437.7 512 433C533.3 428.3 554.7 424.7 576 422.7C597.3 420.7 618.7 420.3 640 424.8C661.3 429.3 682.7 438.7 704 443.7C725.3 448.7 746.7 449.3 768 445.3C789.3 441.3 810.7 432.7 832 425.5C853.3 418.3 874.7 412.7 896 418.3C917.3 424 938.7 441 949.3 449.5L960 458L960 541L949.3 541C938.7 541 917.3 541 896 541C874.7 541 853.3 541 832 541C810.7 541 789.3 541 768 541C746.7 541 725.3 541 704 541C682.7 541 661.3 541 640 541C618.7 541 597.3 541 576 541C554.7 541 533.3 541 512 541C490.7 541 469.3 541 448 541C426.7 541 405.3 541 384 541C362.7 541 341.3 541 320 541C298.7 541 277.3 541 256 541C234.7 541 213.3 541 192 541C170.7 541 149.3 541 128 541C106.7 541 85.3 541 64 541C42.7 541 21.3 541 10.7 541L0 541Z" fill="#24a6c7"></path><path d="M0 471L10.7 465.3C21.3 459.7 42.7 448.3 64 445.3C85.3 442.3 106.7 447.7 128 446.2C149.3 444.7 170.7 436.3 192 439.8C213.3 443.3 234.7 458.7 256 460.8C277.3 463 298.7 452 320 446.3C341.3 440.7 362.7 440.3 384 439.2C405.3 438 426.7 436 448 437.8C469.3 439.7 490.7 445.3 512 450.5C533.3 455.7 554.7 460.3 576 461.2C597.3 462 618.7 459 640 452.8C661.3 446.7 682.7 437.3 704 438.3C725.3 439.3 746.7 450.7 768 454.7C789.3 458.7 810.7 455.3 832 450.8C853.3 446.3 874.7 440.7 896 439.2C917.3 437.7 938.7 440.3 949.3 441.7L960 443L960 541L949.3 541C938.7 541 917.3 541 896 541C874.7 541 853.3 541 832 541C810.7 541 789.3 541 768 541C746.7 541 725.3 541 704 541C682.7 541 661.3 541 640 541C618.7 541 597.3 541 576 541C554.7 541 533.3 541 512 541C490.7 541 469.3 541 448 541C426.7 541 405.3 541 384 541C362.7 541 341.3 541 320 541C298.7 541 277.3 541 256 541C234.7 541 213.3 541 192 541C170.7 541 149.3 541 128 541C106.7 541 85.3 541 64 541C42.7 541 21.3 541 10.7 541L0 541Z" fill="#18ddcf"></path><path d="M0 453L10.7 459.5C21.3 466 42.7 479 64 482.7C85.3 486.3 106.7 480.7 128 476.2C149.3 471.7 170.7 468.3 192 467.3C213.3 466.3 234.7 467.7 256 465.8C277.3 464 298.7 459 320 459C341.3 459 362.7 464 384 465.3C405.3 466.7 426.7 464.3 448 464C469.3 463.7 490.7 465.3 512 464.2C533.3 463 554.7 459 576 460.5C597.3 462 618.7 469 640 474.7C661.3 480.3 682.7 484.7 704 485.5C725.3 486.3 746.7 483.7 768 483.8C789.3 484 810.7 487 832 485.5C853.3 484 874.7 478 896 476.3C917.3 474.7 938.7 477.3 949.3 478.7L960 480L960 541L949.3 541C938.7 541 917.3 541 896 541C874.7 541 853.3 541 832 541C810.7 541 789.3 541 768 541C746.7 541 725.3 541 704 541C682.7 541 661.3 541 640 541C618.7 541 597.3 541 576 541C554.7 541 533.3 541 512 541C490.7 541 469.3 541 448 541C426.7 541 405.3 541 384 541C362.7 541 341.3 541 320 541C298.7 541 277.3 541 256 541C234.7 541 213.3 541 192 541C170.7 541 149.3 541 128 541C106.7 541 85.3 541 64 541C42.7 541 21.3 541 10.7 541L0 541Z" fill="#69fabb"></path><path d="M0 481L10.7 482.3C21.3 483.7 42.7 486.3 64 486.3C85.3 486.3 106.7 483.7 128 483.5C149.3 483.3 170.7 485.7 192 485.7C213.3 485.7 234.7 483.3 256 485.7C277.3 488 298.7 495 320 496.5C341.3 498 362.7 494 384 491C405.3 488 426.7 486 448 489C469.3 492 490.7 500 512 499C533.3 498 554.7 488 576 484.3C597.3 480.7 618.7 483.3 640 487.5C661.3 491.7 682.7 497.3 704 499C725.3 500.7 746.7 498.3 768 494.5C789.3 490.7 810.7 485.3 832 485.3C853.3 485.3 874.7 490.7 896 493.3C917.3 496 938.7 496 949.3 496L960 496L960 541L949.3 541C938.7 541 917.3 541 896 541C874.7 541 853.3 541 832 541C810.7 541 789.3 541 768 541C746.7 541 725.3 541 704 541C682.7 541 661.3 541 640 541C618.7 541 597.3 541 576 541C554.7 541 533.3 541 512 541C490.7 541 469.3 541 448 541C426.7 541 405.3 541 384 541C362.7 541 341.3 541 320 541C298.7 541 277.3 541 256 541C234.7 541 213.3 541 192 541C170.7 541 149.3 541 128 541C106.7 541 85.3 541 64 541C42.7 541 21.3 541 10.7 541L0 541Z" fill="#18ddcf"></path><path d="M0 511L10.7 513.2C21.3 515.3 42.7 519.7 64 517.8C85.3 516 106.7 508 128 505.8C149.3 503.7 170.7 507.3 192 508.3C213.3 509.3 234.7 507.7 256 505.7C277.3 503.7 298.7 501.3 320 501.7C341.3 502 362.7 505 384 507.8C405.3 510.7 426.7 513.3 448 514C469.3 514.7 490.7 513.3 512 511.7C533.3 510 554.7 508 576 509.8C597.3 511.7 618.7 517.3 640 519.5C661.3 521.7 682.7 520.3 704 520.5C725.3 520.7 746.7 522.3 768 523C789.3 523.7 810.7 523.3 832 520.2C853.3 517 874.7 511 896 507.5C917.3 504 938.7 503 949.3 502.5L960 502L960 541L949.3 541C938.7 541 917.3 541 896 541C874.7 541 853.3 541 832 541C810.7 541 789.3 541 768 541C746.7 541 725.3 541 704 541C682.7 541 661.3 541 640 541C618.7 541 597.3 541 576 541C554.7 541 533.3 541 512 541C490.7 541 469.3 541 448 541C426.7 541 405.3 541 384 541C362.7 541 341.3 541 320 541C298.7 541 277.3 541 256 541C234.7 541 213.3 541 192 541C170.7 541 149.3 541 128 541C106.7 541 85.3 541 64 541C42.7 541 21.3 541 10.7 541L0 541Z" fill="#24a6c7"></path></svg>